<svg width="823.34973" height="355.45566" viewBox="0 0 823.34973 355.45566" xmlns="http://www.w3.org/2000/svg" xmlns:usvg="https://github.com/RazrFalcon/usvg" usvg:version="0.8.0">
    <defs/>
    <path id="ellipse2" fill="#ffffff" stroke="#000000" d="M 329.70104 190.35515 C 329.70104 281.26150701022 256.00687701022 354.95567 165.10052 354.95567 C 74.19416298978 354.95567 0.5 281.26150701022 0.5 190.35515 C 0.5 99.44879298978 74.19416298978 25.75463 165.10052 25.75463 C 256.00687701022 25.75463 329.70104 99.44879298978 329.70104 190.35515 Z"/>
    <path id="ellipse4" fill="#ffffff" stroke="#000000" d="M 822.84973 190.35515 C 822.84973 281.26150701022 749.15556701022 354.95567 658.24921 354.95567 C 567.34285298978 354.95567 493.64869 281.26150701022 493.64869 190.35515 C 493.64869 99.44879298978 567.34285298978 25.75463 658.24921 25.75463 C 749.15556701022 25.75463 822.84973 99.44879298978 822.84973 190.35515 Z"/>
    <path id="ellipse6" fill="#ffffff" stroke="#000000" d="M 270.56072 190.35515 C 270.56072 248.59921017411 223.34458017411 295.81535 165.10052 295.81535 C 106.85645982589 295.81535 59.64032 248.59921017411 59.64032 190.35515 C 59.64032 132.11108982589 106.85645982589 84.89495 165.10052 84.89495 C 223.34458017411 84.89495 270.56072 132.11108982589 270.56072 190.35515 Z"/>
    <path id="ellipse8" fill="#ffffff" stroke="#000000" d="M 763.70941 190.35515 C 763.70941 248.59921017411 716.49327017411 295.81535 658.24921 295.81535 C 600.00514982589 295.81535 552.78901 248.59921017411 552.78901 190.35515 C 552.78901 132.11108982589 600.00514982589 84.89495 658.24921 84.89495 C 716.49327017411 84.89495 763.70941 132.11108982589 763.70941 190.35515 Z"/>
    <path id="ellipse10" fill="#ffffff" stroke="#000000" d="M 224.530578 190.35515 C 224.530578 223.17746471496 197.92283471496 249.785208 165.10052 249.785208 C 132.27820528504 249.785208 105.670462 223.17746471496 105.670462 190.35515 C 105.670462 157.53283528504 132.27820528504 130.925092 165.10052 130.925092 C 197.92283471496 130.925092 224.530578 157.53283528504 224.530578 190.35515 Z"/>
    <path id="ellipse12" fill="#ffffff" stroke="#000000" d="M 717.679268 190.35515 C 717.679268 223.17746471496 691.07152471496 249.785208 658.24921 249.785208 C 625.42689528504 249.785208 598.819152 223.17746471496 598.819152 190.35515 C 598.819152 157.53283528504 625.42689528504 130.925092 658.24921 130.925092 C 691.07152471496 130.925092 717.679268 157.53283528504 717.679268 190.35515 Z"/>
    <path id="ellipse14" fill="#ffffff" stroke="#000000" d="M 191.610633 190.35515 C 191.610633 204.99628112619 179.74165112619 216.865263 165.10052 216.865263 C 150.45938887381 216.865263 138.590407 204.99628112619 138.590407 190.35515 C 138.590407 175.71401887381 150.45938887381 163.845037 165.10052 163.845037 C 179.74165112619 163.845037 191.610633 175.71401887381 191.610633 190.35515 Z"/>
    <path id="ellipse16" fill="#ffffff" stroke="#000000" d="M 684.759323 190.35515 C 684.759323 204.99628112619 672.89034112619 216.865263 658.24921 216.865263 C 643.60807887381 216.865263 631.739097 204.99628112619 631.739097 190.35515 C 631.739097 175.71401887381 643.60807887381 163.845037 658.24921 163.845037 C 672.89034112619 163.845037 684.759323 175.71401887381 684.759323 190.35515 Z"/>
    <path id="ellipse18" fill="#ffffff" stroke="#000000" d="M 171.8008789 190.35515 C 171.8008789 194.05565603886 168.80102603886 197.0555089 165.10052 197.0555089 C 161.40001396114 197.0555089 158.4001611 194.05565603886 158.4001611 190.35515 C 158.4001611 186.65464396114 161.40001396114 183.6547911 165.10052 183.6547911 C 168.80102603886 183.6547911 171.8008789 186.65464396114 171.8008789 190.35515 Z"/>
    <path id="ellipse20" fill="#ffffff" stroke="#000000" d="M 664.9495689 190.35515 C 664.9495689 194.05565603886 661.94971603886 197.0555089 658.24921 197.0555089 C 654.54870396114 197.0555089 651.5488511 194.05565603886 651.5488511 190.35515 C 651.5488511 186.65464396114 654.54870396114 183.6547911 658.24921 183.6547911 C 661.94971603886 183.6547911 664.9495689 186.65464396114 664.9495689 190.35515 Z"/>
    <path id="ellipse22" fill="#ffffff" stroke="#000000" d="M 165.10131597882 190.35515 C 165.10131597882 190.35558960696 165.10095960696 190.35594597882 165.10052 190.35594597882 C 165.10008039304 190.35594597882 165.09972402118 190.35558960696 165.09972402118 190.35515 C 165.09972402118 190.35471039304 165.10008039304 190.35435402118 165.10052 190.35435402118 C 165.10095960696 190.35435402118 165.10131597882 190.35471039304 165.10131597882 190.35515 Z"/>
    <path id="ellipse24" fill="#ffffff" stroke="#000000" d="M 658.25000597882 190.35515 C 658.25000597882 190.35558960696 658.24964960696 190.35594597882 658.24921 190.35594597882 C 658.24877039304 190.35594597882 658.24841402118 190.35558960696 658.24841402118 190.35515 C 658.24841402118 190.35471039304 658.24877039304 190.35435402118 658.24921 190.35435402118 C 658.24964960696 190.35435402118 658.25000597882 190.35471039304 658.25000597882 190.35515 Z"/>
    <path id="path26" fill="#ffffff" stroke="#000000" d="M 80.571066 87.37199 C 409.76974 1.6576996 413.58 1.6576996 742.77867 87.37199"/>
    <path id="path28" fill="#ffffff" stroke="#000000" d="M 80.571066 87.37199 C 392.62356 308.95554 430.72618 308.95554 742.77867 87.37199"/>
    <path id="ellipse30" stroke="#000000" d="M 195.165136 149.97752 C 195.165136 180.78752337306 170.18869337306 205.763966 139.37869 205.763966 C 108.56868662694 205.763966 83.592244 180.78752337306 83.592244 149.97752 C 83.592244 119.16751662694 108.56868662694 94.191074 139.37869 94.191074 C 170.18869337306 94.191074 195.165136 119.16751662694 195.165136 149.97752 Z"/>
    <path id="ellipse32" stroke="#000000" d="M 739.757516 149.97752 C 739.757516 180.78752337306 714.78107337306 205.763966 683.97107 205.763966 C 653.16106662694 205.763966 628.184624 180.78752337306 628.184624 149.97752 C 628.184624 119.16751662694 653.16106662694 94.191074 683.97107 94.191074 C 714.78107337306 94.191074 739.757516 119.16751662694 739.757516 149.97752 Z"/>
    <path id="ellipse34" fill="#ffffff" stroke="#000000" d="M 323.479542 103.57871 C 323.479542 133.61427042575 280.32418755201 157.962903 227.08936 157.962903 C 173.85453244799 157.962903 130.699178 133.61427042575 130.699178 103.57871 C 130.699178 73.54314957425 173.85453244799 49.194517 227.08936 49.194517 C 280.32418755201 49.194517 323.479542 73.54314957425 323.479542 103.57871 Z"/>
    <path id="ellipse36" fill="#ffffff" stroke="#000000" d="M 692.650562 103.57871 C 692.650562 133.61427042575 649.49520755201 157.962903 596.26038 157.962903 C 543.02555244799 157.962903 499.870198 133.61427042575 499.870198 103.57871 C 499.870198 73.54314957425 543.02555244799 49.194517 596.26038 49.194517 C 649.49520755201 49.194517 692.650562 73.54314957425 692.650562 103.57871 Z"/>
    <path id="ellipse38" fill="#ffffff" stroke="#000000" d="M 247.750983 103.57871 C 247.750983 114.98980928965 238.50045928965 124.240333 227.08936 124.240333 C 215.67826071035 124.240333 206.427737 114.98980928965 206.427737 103.57871 C 206.427737 92.16761071035 215.67826071035 82.917087 227.08936 82.917087 C 238.50045928965 82.917087 247.750983 92.16761071035 247.750983 103.57871 Z"/>
    <path id="ellipse40" fill="#ffffff" stroke="#000000" d="M 616.922003 103.57871 C 616.922003 114.98980928965 607.67147928965 124.240333 596.26038 124.240333 C 584.84928071035 124.240333 575.598757 114.98980928965 575.598757 103.57871 C 575.598757 92.16761071035 584.84928071035 82.917087 596.26038 82.917087 C 607.67147928965 82.917087 616.922003 92.16761071035 616.922003 103.57871 Z"/>
    <path id="path42" fill="#ffffff" stroke="#000000" d="M 80.571066 87.37199 C 80.571066 -62.62801 411.67487 27.37199 411.67487 26.37199"/>
    <path id="path44" fill="#ffffff" stroke="#000000" d="M 742.77867 87.37199 C 742.77867 -62.62801 411.67487 27.37199 411.67487 26.37199"/>
    <path id="path46" fill="#ffffff" stroke="#000000" d="M 80.571066 114.06593 C 80.571066 -56.07291 411.67487 27.37199 411.67487 26.37199"/>
    <path id="path48" fill="#ffffff" stroke="#000000" d="M 742.77867 114.06593 C 742.77867 -56.07291 411.67487 27.37199 411.67487 26.37199"/>
    <path id="path50" stroke="#000000" d="M 80.571066 140.75987 C 80.571066 -36.40763 411.67487 27.37199 411.67487 26.37199"/>
    <path id="path52" stroke="#000000" d="M 742.77867 140.75987 C 742.77867 -36.40763 411.67487 27.37199 411.67487 26.37199"/>
    <path id="path54" stroke="#d2d2d2" stroke-width="5" d="M 399.7995 218.86738 C 349.51767 221.30493 473.83207 221.30493 423.55024 218.86738"/>
    <path id="path56" fill="#ffffff" stroke="#d2d2d2" stroke-width="5" d="M 398.34029 194.11283 C 380.27126 133.07296 443.07848 133.07296 425.00945 194.11283"/>
    <path id="path58" stroke="#000000" d="M 399.7995 218.86738 C 349.51767 221.30493 473.83207 221.30493 423.55024 218.86738"/>
    <path id="path60" stroke="#000000" d="M 398.34029 194.11283 C 380.27126 133.07296 443.07848 133.07296 425.00945 194.11283"/>
</svg>
