<svg viewBox="0 0 1600 1200" xmlns="http://www.w3.org/2000/svg">
<ellipse cx="519.7702932380324" cy="506.1409259471402" rx="83.3537044900374" ry="83.3537044900374" style="stroke-width: 1; stroke: rgb(0, 0, 0); fill: rgb(111, 129, 32)"/>
<ellipse cx="880.2297067619676" cy="506.1409259471402" rx="83.3537044900374" ry="83.3537044900374" style="stroke-width: 1; stroke: rgb(0, 0, 0); fill: rgb(111, 129, 32)"/>
<ellipse cx="519.7702932380324" cy="506.1409259471402" rx="46.16431535997774" ry="46.16431535997774" style="stroke-width: 1; stroke: rgb(0, 0, 0); fill: rgb(111, 129, 32)"/>
<ellipse cx="880.2297067619676" cy="506.1409259471402" rx="46.16431535997774" ry="46.16431535997774" style="stroke-width: 1; stroke: rgb(0, 0, 0); fill: rgb(111, 129, 32)"/>
<ellipse cx="519.7702932380324" cy="506.1409259471402" rx="19.883040842892388" ry="19.883040842892388" style="stroke-width: 1; stroke: rgb(0, 0, 0); fill: rgb(111, 129, 32)"/>
<ellipse cx="880.2297067619676" cy="506.1409259471402" rx="19.883040842892388" ry="19.883040842892388" style="stroke-width: 1; stroke: rgb(0, 0, 0); fill: rgb(111, 129, 32)"/>
<ellipse cx="519.7702932380324" cy="506.1409259471402" rx="4.509880938781323" ry="4.509880938781323" style="stroke-width: 1; stroke: rgb(0, 0, 0); fill: rgb(111, 129, 32)"/>
<ellipse cx="880.2297067619676" cy="506.1409259471402" rx="4.509880938781323" ry="4.509880938781323" style="stroke-width: 1; stroke: rgb(0, 0, 0); fill: rgb(111, 129, 32)"/>
<path d="M473.8566652757785,600 C664.7219518037884,514.2857142857142,735.2780481962116,514.2857142857142,926.1433347242215,600" style="stroke-width: 1; stroke: rgb(0, 0, 0); fill: rgb(161, 209, 187)"/>
<path d="M473.8566652757785,600 C347.2195180378846,868.8158876229106,1052.7804819621153,868.8158876229106,926.1433347242215,600" style="stroke-width: 1; stroke: rgb(0, 0, 0); fill: rgb(161, 209, 187)"/>
<ellipse cx="518.7589177867708" cy="676.4482171809738" rx="29.985731620390595" ry="29.985731620390595" style="stroke-width: 1; stroke: rgb(0, 0, 0); fill: rgb(141, 110, 97)"/>
<ellipse cx="881.2410822132293" cy="676.4482171809738" rx="29.985731620390595" ry="29.985731620390595" style="stroke-width: 1; stroke: rgb(0, 0, 0); fill: rgb(141, 110, 97)"/>
<ellipse cx="540.5884149420716" cy="674.9152238339425" rx="56.648777565517555" ry="22.86939741086956" style="stroke-width: 1; stroke: rgb(0, 0, 0); fill: rgb(255, 255, 255)"/>
<ellipse cx="859.4115850579284" cy="674.9152238339425" rx="56.648777565517555" ry="22.86939741086956" style="stroke-width: 1; stroke: rgb(0, 0, 0); fill: rgb(255, 255, 255)"/>
<ellipse cx="540.5884149420716" cy="674.9152238339425" rx="12.648142699467112" ry="12.648142699467112" style="stroke-width: 1; stroke: rgb(0, 0, 0); fill: rgb(16, 27, 26)"/>
<ellipse cx="859.4115850579284" cy="674.9152238339425" rx="12.648142699467112" ry="12.648142699467112" style="stroke-width: 1; stroke: rgb(0, 0, 0); fill: rgb(16, 27, 26)"/>
<path d="M473.8566652757785,600 C473.8566652757785,450,700,540,700,539" style="stroke-width: 1; stroke: rgb(0, 0, 0); fill: rgb(111, 129, 32)"/>
<path d="M926.1433347242215,600 C926.1433347242215,450,700,540,700,539" style="stroke-width: 1; stroke: rgb(0, 0, 0); fill: rgb(111, 129, 32)"/>
<path d="M473.8566652757785,634.4685801081878 C473.8566652757785,455.45405730648713,700,540,700,539" style="stroke-width: 1; stroke: rgb(0, 0, 0); fill: rgb(111, 129, 32)"/>
<path d="M926.1433347242215,634.4685801081878 C926.1433347242215,455.45405730648713,700,540,700,539" style="stroke-width: 1; stroke: rgb(0, 0, 0); fill: rgb(111, 129, 32)"/>
<path d="M473.8566652757785,668.9371602163757 C473.8566652757785,471.8162292259486,700,540,700,539" style="stroke-width: 1; stroke: rgb(0, 0, 0); fill: rgb(111, 129, 32)"/>
<path d="M926.1433347242215,668.9371602163757 C926.1433347242215,471.8162292259486,700,540,700,539" style="stroke-width: 1; stroke: rgb(0, 0, 0); fill: rgb(111, 129, 32)"/>
<path d="M602.8682064035772,730.3108991911179 C656.6322846448734,725.7475730974056,743.3677153551266,725.7475730974056,797.1317935964228,730.3108991911179" style="stroke-width: 5; stroke: rgb(116, 164, 142)"/>
<path d="M681.53367137395,721.1060481488731 C610.6639840795895,659.6739462052365,789.3360159204105,659.6739462052365,718.46632862605,721.1060481488731" style="stroke-width: 5; stroke: rgb(116, 164, 142); fill: rgb(161, 209, 187)"/>
<path d="M602.8682064035772,730.3108991911179 C656.6322846448734,725.7475730974056,743.3677153551266,725.7475730974056,797.1317935964228,730.3108991911179" style="stroke-width: 1; stroke: rgb(0, 0, 0)"/>
<path d="M681.53367137395,721.1060481488731 C610.6639840795895,659.6739462052365,789.3360159204105,659.6739462052365,718.46632862605,721.1060481488731" style="stroke-width: 1; stroke: rgb(0, 0, 0)"/>
</svg>
