<svg viewBox="0 0 1600 1200" xmlns="http://www.w3.org/2000/svg">
<ellipse cx="302.70583514631426" cy="181.89516415119877" rx="49.01362407073189" ry="49.01362407073189" style="stroke-width: 1; stroke: rgb(0, 0, 0); fill: rgb(255, 255, 255)"/>
<ellipse cx="497.2941648536857" cy="181.89516415119877" rx="49.01362407073189" ry="49.01362407073189" style="stroke-width: 1; stroke: rgb(0, 0, 0); fill: rgb(255, 255, 255)"/>
<ellipse cx="302.70583514631426" cy="181.89516415119877" rx="4.634708220680607" ry="4.634708220680607" style="stroke-width: 1; stroke: rgb(0, 0, 0); fill: rgb(255, 255, 255)"/>
<ellipse cx="497.2941648536857" cy="181.89516415119877" rx="4.634708220680607" ry="4.634708220680607" style="stroke-width: 1; stroke: rgb(0, 0, 0); fill: rgb(255, 255, 255)"/>
<path d="M157.10471012555007,300 C360.36001796269613,214.28571428571428,439.63998203730387,214.28571428571428,642.8952898744499,300" style="stroke-width: 1; stroke: rgb(0, 0, 0); fill: rgb(255, 255, 255)"/>
<path d="M157.10471012555007,300 C3.6001796269612782,608.9587018882714,796.3998203730387,608.9587018882714,642.8952898744499,300" style="stroke-width: 1; stroke: rgb(0, 0, 0); fill: rgb(255, 255, 255)"/>
<ellipse cx="199.4351448529575" cy="417.6876268878251" rx="15.871738912021026" ry="15.871738912021026" style="stroke-width: 1; stroke: rgb(0, 0, 0); fill: rgb(0, 0, 0)"/>
<ellipse cx="600.5648551470424" cy="417.6876268878251" rx="15.871738912021026" ry="15.871738912021026" style="stroke-width: 1; stroke: rgb(0, 0, 0); fill: rgb(0, 0, 0)"/>
<ellipse cx="235.3160748440647" cy="352.1352882707196" rx="98.33404808312041" ry="23.566947255178505" style="stroke-width: 1; stroke: rgb(0, 0, 0); fill: rgb(255, 255, 255)"/>
<ellipse cx="564.6839251559353" cy="352.1352882707196" rx="98.33404808312041" ry="23.566947255178505" style="stroke-width: 1; stroke: rgb(0, 0, 0); fill: rgb(255, 255, 255)"/>
<ellipse cx="235.3160748440647" cy="352.1352882707196" rx="9.207587865558676" ry="9.207587865558676" style="stroke-width: 1; stroke: rgb(0, 0, 0); fill: rgb(255, 255, 255)"/>
<ellipse cx="564.6839251559353" cy="352.1352882707196" rx="9.207587865558676" ry="9.207587865558676" style="stroke-width: 1; stroke: rgb(0, 0, 0); fill: rgb(255, 255, 255)"/>
<path d="M157.10471012555007,300 C157.10471012555007,150,400,240,400,239" style="stroke-width: 1; stroke: rgb(0, 0, 0); fill: rgb(255, 255, 255)"/>
<path d="M642.8952898744499,300 C642.8952898744499,150,400,240,400,239" style="stroke-width: 1; stroke: rgb(0, 0, 0); fill: rgb(255, 255, 255)"/>
<path d="M157.10471012555007,195.5088877311648 C157.10471012555007,173.50442103849312,400,240,400,239" style="stroke-width: 1; stroke: rgb(0, 0, 0); fill: rgb(255, 255, 255)"/>
<path d="M642.8952898744499,195.5088877311648 C642.8952898744499,173.50442103849312,400,240,400,239" style="stroke-width: 1; stroke: rgb(0, 0, 0); fill: rgb(255, 255, 255)"/>
<path d="M157.10471012555007,91.01777546232964 C157.10471012555007,244.01768415397245,400,240,400,239" style="stroke-width: 1; stroke: rgb(0, 0, 0)"/>
<path d="M642.8952898744499,91.01777546232964 C642.8952898744499,244.01768415397245,400,240,400,239" style="stroke-width: 1; stroke: rgb(0, 0, 0)"/>
<path d="M277.23393210840874,440.1044297246918 C339.7155866355815,429.49838368819815,460.2844133644185,429.49838368819815,522.7660678915912,440.1044297246918" style="stroke-width: 5; stroke: rgb(210, 210, 210)"/>
<path d="M387.81548982270056,412.022188960182 C354.11324800645104,336.64737093604924,445.88675199354896,336.64737093604924,412.18451017729944,412.022188960182" style="stroke-width: 5; stroke: rgb(210, 210, 210); fill: rgb(255, 255, 255)"/>
<path d="M277.23393210840874,440.1044297246918 C339.7155866355815,429.49838368819815,460.2844133644185,429.49838368819815,522.7660678915912,440.1044297246918" style="stroke-width: 1; stroke: rgb(0, 0, 0)"/>
<path d="M387.81548982270056,412.022188960182 C354.11324800645104,336.64737093604924,445.88675199354896,336.64737093604924,412.18451017729944,412.022188960182" style="stroke-width: 1; stroke: rgb(0, 0, 0)"/>
</svg>
